<svg width="165" height="140" viewBox="0 0 165 140" fill="none" xmlns="http://www.w3.org/2000/svg">
<g filter="url(#filter0_dddddd_34_162)">
<path d="M134.7 85.3416L91.2664 112.726C89.4217 113.89 87.2198 114.518 84.9393 114.531C82.6587 114.544 80.402 113.941 78.4547 112.799L77.6893 112.305C75.9718 111.116 74.6326 109.531 73.8192 107.723C73.0057 105.915 72.7497 103.954 73.0792 102.058L75.3972 88.7407L35.5079 81.7977C32.4852 81.2716 29.7752 79.6819 27.9741 77.3783C26.173 75.0748 25.4282 72.246 25.9036 69.5143L29.4891 48.9149L29.652 48.1474C30.3187 45.5937 32.0316 43.3967 34.4475 41.9968C36.8633 40.5969 39.8036 40.0976 42.6787 40.5989L82.5672 47.5469L84.8861 34.2243C85.241 32.1876 86.2562 30.313 87.8033 28.8376C89.3504 27.3622 91.3599 26.3522 93.5778 25.9353C95.7957 25.5183 98.1223 25.7131 100.264 26.4951C102.405 27.2771 104.265 28.6111 105.608 30.3285L137.235 70.7778C139.035 73.0812 139.78 75.9094 139.304 78.6405C138.829 81.3716 137.173 83.782 134.7 85.3416Z" fill="#2AA24B"/>
<path d="M90.9996 112.303L90.9997 112.303L134.433 84.9187C134.433 84.9187 134.433 84.9187 134.433 84.9187C136.794 83.4298 138.362 81.1382 138.812 78.5548C139.261 75.9713 138.56 73.2846 136.841 71.0858C136.841 71.0858 136.841 71.0858 136.841 71.0857L105.214 30.6366C103.931 28.9962 102.15 27.7162 100.092 26.9648C98.0343 26.2133 95.7988 26.0265 93.6702 26.4267C91.5417 26.8268 89.6216 27.7946 88.1484 29.1995C86.6759 30.6037 85.7146 32.3826 85.3786 34.31L83.0598 47.6327L82.974 48.1253L82.4814 48.0395L42.5929 41.0915C39.8277 40.6093 37.0075 41.0913 34.6982 42.4295C32.3939 43.7647 30.7716 45.8508 30.1387 48.2625L29.9801 49.0098L26.3962 69.6001C25.9465 72.1841 26.6486 74.8713 28.368 77.0704C30.0888 79.2712 32.6864 80.7991 35.5936 81.3051L75.4829 88.2481L75.9755 88.3338L75.8898 88.8264L73.5718 102.144C73.5718 102.144 73.5718 102.144 73.5718 102.144C73.2599 103.939 73.5014 105.798 74.2751 107.517C75.0482 109.236 76.3237 110.75 77.9673 111.889L78.7168 112.373C80.5837 113.466 82.7484 114.044 84.9364 114.031C87.128 114.019 89.2376 113.415 90.9996 112.303Z" stroke="#F1FA48" stroke-opacity="0.15"/>
</g>
<defs>
<filter id="filter0_dddddd_34_162" x="0.64122" y="0.598953" width="163.925" height="139.055" filterUnits="userSpaceOnUse" color-interpolation-filters="sRGB">
<feFlood flood-opacity="0" result="BackgroundImageFix"/>
<feColorMatrix in="SourceAlpha" type="matrix" values="0 0 0 0 0 0 0 0 0 0 0 0 0 0 0 0 0 0 127 0" result="hardAlpha"/>
<feOffset/>
<feGaussianBlur stdDeviation="0.299074"/>
<feColorMatrix type="matrix" values="0 0 0 0 0.996078 0 0 0 0 0.964706 0 0 0 0 0.0431373 0 0 0 1 0"/>
<feBlend mode="normal" in2="BackgroundImageFix" result="effect1_dropShadow_34_162"/>
<feColorMatrix in="SourceAlpha" type="matrix" values="0 0 0 0 0 0 0 0 0 0 0 0 0 0 0 0 0 0 127 0" result="hardAlpha"/>
<feOffset/>
<feGaussianBlur stdDeviation="0.598149"/>
<feColorMatrix type="matrix" values="0 0 0 0 0.996078 0 0 0 0 0.964706 0 0 0 0 0.0431373 0 0 0 1 0"/>
<feBlend mode="normal" in2="effect1_dropShadow_34_162" result="effect2_dropShadow_34_162"/>
<feColorMatrix in="SourceAlpha" type="matrix" values="0 0 0 0 0 0 0 0 0 0 0 0 0 0 0 0 0 0 127 0" result="hardAlpha"/>
<feOffset/>
<feGaussianBlur stdDeviation="2.09352"/>
<feColorMatrix type="matrix" values="0 0 0 0 0.996078 0 0 0 0 0.964706 0 0 0 0 0.0431373 0 0 0 1 0"/>
<feBlend mode="normal" in2="effect2_dropShadow_34_162" result="effect3_dropShadow_34_162"/>
<feColorMatrix in="SourceAlpha" type="matrix" values="0 0 0 0 0 0 0 0 0 0 0 0 0 0 0 0 0 0 127 0" result="hardAlpha"/>
<feOffset/>
<feGaussianBlur stdDeviation="4.18704"/>
<feColorMatrix type="matrix" values="0 0 0 0 0.996078 0 0 0 0 0.964706 0 0 0 0 0.0431373 0 0 0 1 0"/>
<feBlend mode="normal" in2="effect3_dropShadow_34_162" result="effect4_dropShadow_34_162"/>
<feColorMatrix in="SourceAlpha" type="matrix" values="0 0 0 0 0 0 0 0 0 0 0 0 0 0 0 0 0 0 127 0" result="hardAlpha"/>
<feOffset/>
<feGaussianBlur stdDeviation="7.17778"/>
<feColorMatrix type="matrix" values="0 0 0 0 0.996078 0 0 0 0 0.964706 0 0 0 0 0.0431373 0 0 0 1 0"/>
<feBlend mode="normal" in2="effect4_dropShadow_34_162" result="effect5_dropShadow_34_162"/>
<feColorMatrix in="SourceAlpha" type="matrix" values="0 0 0 0 0 0 0 0 0 0 0 0 0 0 0 0 0 0 127 0" result="hardAlpha"/>
<feOffset/>
<feGaussianBlur stdDeviation="12.5611"/>
<feColorMatrix type="matrix" values="0 0 0 0 0.996078 0 0 0 0 0.964706 0 0 0 0 0.0431373 0 0 0 1 0"/>
<feBlend mode="normal" in2="effect5_dropShadow_34_162" result="effect6_dropShadow_34_162"/>
<feBlend mode="normal" in="SourceGraphic" in2="effect6_dropShadow_34_162" result="shape"/>
</filter>
</defs>
</svg>
